<svg id="timeCircle" viewBox="0 0 32 32">
<path d="M 256 8 C 119 8 8 119 8 256 s 111 248 248 248 s 248 -111 248 -248 S 393 8 256 8 Z m 121.6 313.1 c 4.7 4.7 4.7 12.3 0 17 L 338 377.6 c -4.7 4.7 -12.3 4.7 -17 0 L 256 312 l -65.1 65.6 c -4.7 4.7 -12.3 4.7 -17 0 L 134.4 338 c -4.7 -4.7 -4.7 -12.3 0 -17 l 65.6 -65 l -65.6 -65.1 c -4.7 -4.7 -4.7 -12.3 0 -17 l 39.6 -39.6 c 4.7 -4.7 12.3 -4.7 17 0 l 65 65.7 l 65.1 -65.6 c 4.7 -4.7 12.3 -4.7 17 0 l 39.6 39.6 c 4.7 4.7 4.7 12.3 0 17 L 312 256 l 65.6 65.1z"></path>
</svg>
